<?xml version="1.0" encoding="UTF-8" standalone="no"?>
<!-- Created with Inkscape (http://www.inkscape.org/) -->

<svg
   width="64.532295mm"
   height="69.024002mm"
   viewBox="0 0 64.532295 69.024002"
   version="1.1"
   id="svg5"
   inkscape:version="1.2.1 (9c6d41e410, 2022-07-14)"
   sodipodi:docname="rysunek.svg"
   xmlns:inkscape="http://www.inkscape.org/namespaces/inkscape"
   xmlns:sodipodi="http://sodipodi.sourceforge.net/DTD/sodipodi-0.dtd"
   xmlns="http://www.w3.org/2000/svg"
   xmlns:svg="http://www.w3.org/2000/svg">
  <sodipodi:namedview
     id="namedview7"
     pagecolor="#ffffff"
     bordercolor="#111111"
     borderopacity="1"
     inkscape:showpageshadow="0"
     inkscape:pageopacity="0"
     inkscape:pagecheckerboard="1"
     inkscape:deskcolor="#d1d1d1"
     inkscape:document-units="mm"
     showgrid="false"
     inkscape:zoom="1"
     inkscape:cx="403.5"
     inkscape:cy="356"
     inkscape:window-width="1920"
     inkscape:window-height="1027"
     inkscape:window-x="1912"
     inkscape:window-y="108"
     inkscape:window-maximized="1"
     inkscape:current-layer="layer1">
    <inkscape:grid
       type="xygrid"
       id="grid3889"
       originx="-0.92539062"
       originy="-0.66076348" />
  </sodipodi:namedview>
  <defs
     id="defs2">
    <linearGradient
       id="linearGradient3668"
       inkscape:swatch="solid">
      <stop
         style="stop-color:#000000;stop-opacity:1;"
         offset="0"
         id="stop3666" />
    </linearGradient>
  </defs>
  <g
     inkscape:label="Warstwa 1"
     inkscape:groupmode="layer"
     id="layer1"
     transform="translate(-0.92539054,-0.66076344)">
    <g
       id="g3794"
       transform="matrix(0.61762625,0,0,0.66401878,-18.275307,-35.794098)"
       inkscape:transform-center-x="-0.16341271"
       inkscape:transform-center-y="0.70275233">
      <g
         id="path748">
        <path
           style="color:#000000;fill:#fff6d5;stroke-width:0.264583;-inkscape-stroke:none"
           d="m 62.30937,55.033333 a 15.478125,10.054167 0 0 0 -14.80736,7.157703 15.478125,9.260417 0 0 0 -0.80305,-0.01395 15.478125,9.260417 0 0 0 -15.47813,9.260417 15.478125,9.260417 0 0 0 15.47813,9.260416 15.478125,9.260417 0 0 0 14.21102,-5.604309 15.478125,10.054167 0 0 0 1.39939,0.04806 15.478125,10.054167 0 0 0 0.68678,-0.02325 16.271875,9.6572914 0 0 0 15.45281,6.637838 16.271875,9.6572914 0 0 0 14.05082,-4.791439 13.890625,5.6885414 0 0 0 10.29084,1.881022 13.890625,5.6885414 0 0 0 13.89063,-5.688542 13.890625,5.6885414 0 0 0 -13.66377,-5.683374 12.303124,6.0854168 0 0 0 2.55127,-3.709334 12.303124,6.0854168 0 0 0 -12.30313,-6.085417 12.303124,6.0854168 0 0 0 -12.05146,4.915463 16.271875,9.6572914 0 0 0 -2.7652,-0.152963 16.271875,9.6572914 0 0 0 -1.21336,0.03772 15.478125,10.054167 0 0 0 -14.92623,-7.446057 z"
           id="path3843" />
        <path
           style="color:#000000;fill:#000000;-inkscape-stroke:none"
           d="m 62.308594,54.900391 c -6.81755,0.0042 -12.827229,2.885268 -14.867188,7.15625 -0.247372,-0.0075 -0.494493,-0.01126 -0.742187,-0.01172 -4.295551,-1e-6 -8.187243,1.039443 -11.013672,2.730469 -2.826429,1.691025 -4.597656,4.045168 -4.597656,6.662109 0,2.616941 1.771227,4.971084 4.597656,6.662109 2.826429,1.691026 6.718122,2.73047 11.013672,2.730469 6.175151,-0.0023 11.753329,-2.184606 14.257812,-5.601562 0.449655,0.02771 0.899904,0.04271 1.351563,0.04492 h 0.002 0.002 c 0.210201,-0.0041 0.419132,-0.01188 0.628906,-0.02148 2.272489,3.988147 8.49401,6.635881 15.507813,6.636719 5.775883,-9.81e-4 11.111226,-1.809531 14.076172,-4.779297 2.648866,1.186854 6.358771,1.865752 10.265625,1.869141 3.85042,0 7.33554,-0.637416 9.87109,-1.675782 1.26777,-0.519183 2.29932,-1.138616 3.01953,-1.835937 0.72021,-0.697321 1.13281,-1.479525 1.13281,-2.308594 v -0.002 c -0.002,-0.819095 -0.40689,-1.592073 -1.11328,-2.283203 -0.70638,-0.691131 -1.71605,-1.306415 -2.96094,-1.824219 -2.41846,-1.005948 -5.74283,-1.620638 -9.41601,-1.679687 1.49027,-1.042287 2.37654,-2.289626 2.37695,-3.605469 0,-1.752713 -1.42734,-3.306823 -3.67773,-4.419922 -2.250394,-1.113099 -5.342718,-1.796876 -8.757811,-1.796875 -2.952688,0.0026 -5.69852,0.52063 -7.855469,1.400391 -2.110093,0.860649 -3.635242,2.075648 -4.25,3.511718 -0.895268,-0.09349 -1.801991,-0.146346 -2.710937,-0.15039 h -0.002 c -0.383578,0.0034 -0.766216,0.0177 -1.148438,0.03711 -1.892134,-4.414655 -8.006235,-7.438847 -14.990234,-7.445312 z m 0,0.265625 c 6.955368,0.0064 13.022318,3.052852 14.804687,7.363281 l 0.03516,0.08789 0.09375,-0.0059 c 0.401559,-0.02143 0.803884,-0.03352 1.207032,-0.03711 0.922918,0.0041 1.841838,0.05517 2.75,0.152343 l 0.101562,0.0098 0.03711,-0.09375 c 0.543869,-1.373145 2.054084,-2.587383 4.171875,-3.451172 2.11779,-0.863789 4.834011,-1.378257 7.755859,-1.380859 3.37973,-10e-7 6.438168,0.680144 8.640621,1.769531 2.20246,1.089387 3.5293,2.575426 3.5293,4.183594 -4.1e-4,1.282821 -0.8594,2.550935 -2.49024,3.599609 l -0.37304,0.240235 0.44336,0.002 c 3.77448,0.02525 7.17689,0.670034 9.62304,1.6875 1.22308,0.508732 2.20684,1.111973 2.87891,1.769531 0.67207,0.657558 1.02986,1.362921 1.03125,2.095703 0,0.741778 -0.36518,1.455327 -1.05078,2.119141 -0.6856,0.663813 -1.68962,1.269057 -2.93555,1.779297 -2.49187,1.020479 -5.95034,1.65625 -9.77148,1.65625 -3.909889,-0.0034 -7.634826,-0.686555 -10.236329,-1.869141 l -0.08398,-0.03711 -0.06445,0.06641 c -2.877496,2.927769 -8.199001,4.749022 -13.957031,4.75 -6.991618,-8.35e-4 -13.180592,-2.678652 -15.337891,-6.56836 l -0.03906,-0.07227 -0.08203,0.0039 c -0.22606,0.01093 -0.4531,0.019 -0.679687,0.02344 -0.464746,-0.0023 -0.930075,-0.01926 -1.392578,-0.04883 l -0.07227,-0.0039 -0.04297,0.05859 c -2.400999,3.342869 -7.952215,5.548474 -14.103515,5.550781 -4.252775,10e-7 -8.101407,-1.032776 -10.876953,-2.693359 -2.775547,-1.660583 -4.46875,-3.938105 -4.46875,-6.435547 0,-2.497442 1.693203,-4.774964 4.46875,-6.435547 2.775546,-1.660583 6.624177,-2.69336 10.876953,-2.693359 0.26647,4.89e-4 0.532763,0.0069 0.798828,0.01563 l 0.08789,0.002 0.03516,-0.08008 c 1.932757,-4.173208 7.899564,-7.075929 14.6875,-7.080078 z"
           id="path3845" />
      </g>
      <g
         id="path562">
        <path
           style="color:#000000;fill:#e6e6e6;stroke-width:0.264583;-inkscape-stroke:none"
           d="m 110.57619,82.008431 a 24.863531,30.653669 0 0 0 -24.863597,30.653429 24.863531,30.653669 0 0 0 24.863597,30.65394 24.863531,30.653669 0 0 0 24.8636,-30.65394 24.863531,30.653669 0 0 0 -24.8636,-30.653429 z m -1.38234,6.879167 A 18.189747,23.381277 0 0 1 127.38344,112.2686 18.189747,23.381277 0 0 1 109.19385,135.65012 18.189747,23.381277 0 0 1 91.004263,112.2686 18.189747,23.381277 0 0 1 109.19385,88.887598 Z"
           id="path3849" />
        <path
           style="color:#000000;fill:#000000;-inkscape-stroke:none"
           d="m 110.57617,81.876953 c -13.819828,-4.5e-5 -24.995984,13.797691 -24.996092,30.785157 -1.22e-4,16.98767 11.176101,30.7852 24.996092,30.78516 13.82,4e-5 24.99622,-13.79749 24.9961,-30.78516 -1.1e-4,-16.987468 -11.17627,-30.785204 -24.9961,-30.785157 z m 0,0.263672 c 13.64354,-4.7e-5 24.73036,13.649999 24.73047,30.521485 1.2e-4,16.87168 -11.08677,30.52153 -24.73047,30.52148 -13.643699,5e-5 -24.730588,-13.6498 -24.730467,-30.52148 1.07e-4,-16.871485 11.086929,-30.52153 24.730467,-30.521485 z m -1.38281,6.615234 c -5.06883,5.8e-5 -9.655116,2.641583 -12.966798,6.898438 -3.311681,4.256855 -5.355409,10.130963 -5.355468,16.615233 -5.3e-5,6.48437 2.043779,12.35632 5.355468,16.61328 3.31169,4.25696 7.897888,6.90034 12.966798,6.90039 5.06891,-5e-5 9.65511,-2.64343 12.9668,-6.90039 3.31169,-4.25696 5.35552,-10.12891 5.35547,-16.61328 -6e-5,-6.48427 -2.04379,-12.358378 -5.35547,-16.615233 -3.31169,-4.256855 -7.89797,-6.898381 -12.9668,-6.898438 z m 0,0.263672 c 4.97693,5.5e-5 9.48618,2.591499 12.75781,6.796875 3.27164,4.205374 5.30072,10.024474 5.30078,16.453124 6e-5,6.42875 -2.02914,12.24569 -5.30078,16.45117 -3.27164,4.20548 -7.7808,6.79682 -12.75781,6.79688 -4.97701,-6e-5 -9.486172,-2.5914 -12.757813,-6.79688 -3.271641,-4.20548 -5.29888,-10.02242 -5.298828,-16.45117 5.9e-5,-6.42865 2.027195,-12.24775 5.298828,-16.453124 3.271632,-4.205375 7.780883,-6.796818 12.757813,-6.796875 z"
           id="path3851" />
      </g>
      <g
         id="g508"
         style="stroke:#000000">
        <g
           id="rect111">
          <path
             style="color:#000000;fill:#ffcc00;stroke:none;stroke-width:0.200527;-inkscape-stroke:none"
             d="m 40.569,79.699539 h 65.05389 V 157.0149 H 40.569 Z"
             id="path3855" />
          <path
             style="color:#000000;fill:#000000;stroke:none;-inkscape-stroke:none"
             d="m 40.46875,79.599609 v 0.09961 77.416011 h 65.25391 V 79.599609 Z m 0.201172,0.199219 H 105.52344 V 156.91406 H 40.669922 Z"
             id="path3857" />
        </g>
        <g
           id="rect325">
          <path
             style="color:#000000;fill:#e6e6e6;stroke:none;stroke-width:0.264583;-inkscape-stroke:none"
             d="m 44.623169,151.56537 h 56.685311 c 3.54459,0 6.39817,1.59501 6.39817,3.57626 0,1.98125 -2.85358,3.57626 -6.39817,3.57626 H 44.623169 c -3.544586,0 -6.398171,-1.59501 -6.398171,-3.57626 0,-1.98125 2.853585,-3.57626 6.398171,-3.57626 z"
             id="path3861" />
          <path
             style="color:#000000;fill:#000000;stroke:none;-inkscape-stroke:none"
             d="m 44.623047,151.43359 c -1.792134,0 -3.410206,0.4001 -4.591797,1.06055 -1.181591,0.66045 -1.939453,1.5943 -1.939453,2.64844 0,1.05414 0.757862,1.98603 1.939453,2.64648 1.181591,0.66045 2.799663,1.06055 4.591797,1.06055 h 56.685543 c 1.79214,0 3.41021,-0.4001 4.5918,-1.06055 1.18159,-0.66045 1.93945,-1.59235 1.93945,-2.64648 0,-1.05414 -0.75786,-1.98799 -1.93945,-2.64844 -1.18159,-0.66045 -2.79966,-1.06055 -4.5918,-1.06055 z m 0,0.26368 h 56.685543 c 1.75245,0 3.33155,0.39693 4.46289,1.02929 1.13135,0.63237 1.80274,1.48891 1.80274,2.41602 0,0.92711 -0.67139,1.7817 -1.80274,2.41406 -1.13134,0.63237 -2.71044,1.0293 -4.46289,1.0293 H 44.623047 c -1.752448,0 -3.331546,-0.39693 -4.462891,-1.0293 -1.131345,-0.63236 -1.802734,-1.48695 -1.802734,-2.41406 0,-0.92711 0.671389,-1.78365 1.802734,-2.41602 1.131345,-0.63236 2.710443,-1.02929 4.462891,-1.02929 z"
             id="path3863" />
        </g>
        <g
           id="rect391">
          <path
             style="color:#000000;fill:#fff6d5;stroke:none;stroke-width:0.264583;-inkscape-stroke:none"
             d="m 57.390473,90 c 1.792559,0 3.235665,2.71935 3.235665,6.097197 v 39.576243 c 0,3.37785 -1.443106,6.0972 -3.235665,6.0972 -1.792558,0 -3.235665,-2.71935 -3.235665,-6.0972 V 96.097197 C 54.154808,92.71935 55.597915,90 57.390473,90 Z"
             id="path3867" />
          <path
             style="color:#000000;fill:#000000;stroke:none;-inkscape-stroke:none"
             d="m 57.390625,89.867187 c -0.963174,0 -1.808287,0.726731 -2.40625,1.853516 -0.597963,1.126785 -0.960937,2.669192 -0.960938,4.376953 v 39.576174 c 10e-7,1.70776 0.362975,3.25017 0.960938,4.37695 0.597963,1.12679 1.443076,1.85156 2.40625,1.85156 0.963175,0 1.808287,-0.72477 2.40625,-1.85156 0.597963,-1.12678 0.960937,-2.66919 0.960937,-4.37695 V 96.097656 c 0,-1.707761 -0.362974,-3.250168 -0.960937,-4.376953 -0.597963,-1.126785 -1.443075,-1.853516 -2.40625,-1.853516 z m 0,0.265625 c 0.829382,0 1.602099,0.633588 2.173828,1.710938 0.571729,1.07735 0.929688,2.583824 0.929688,4.253906 v 39.576174 c 0,1.67008 -0.357959,3.1746 -0.929688,4.25195 -0.571729,1.07735 -1.344446,1.71289 -2.173828,1.71289 -0.829382,0 -1.602099,-0.63554 -2.173828,-1.71289 -0.571729,-1.07735 -0.929688,-2.58187 -0.929688,-4.25195 V 96.097656 c 0,-1.670082 0.357959,-3.176556 0.929688,-4.253906 0.571729,-1.07735 1.344446,-1.710937 2.173828,-1.710938 z"
             id="path3869" />
        </g>
        <g
           id="rect391-6">
          <path
             style="color:#000000;fill:#fff6d5;stroke:none;stroke-width:0.264583;-inkscape-stroke:none"
             d="m 74.250001,90 c 1.792558,0 3.235665,2.71935 3.235665,6.097197 v 39.576243 c 0,3.37785 -1.443107,6.0972 -3.235665,6.0972 -1.792559,0 -3.235665,-2.71935 -3.235665,-6.0972 V 96.097197 C 71.014336,92.71935 72.457442,90 74.250001,90 Z"
             id="path3873" />
          <path
             style="color:#000000;fill:#000000;stroke:none;-inkscape-stroke:none"
             d="m 74.25,89.867187 c -0.963175,0 -1.808287,0.726731 -2.40625,1.853516 -0.597963,1.126785 -0.960938,2.669192 -0.960938,4.376953 v 39.576174 c 0,1.70776 0.362975,3.25017 0.960938,4.37695 0.597963,1.12679 1.443075,1.85156 2.40625,1.85156 0.963174,0 1.808287,-0.72477 2.40625,-1.85156 0.597963,-1.12678 0.960937,-2.66919 0.960937,-4.37695 V 96.097656 c 0,-1.707761 -0.362974,-3.250168 -0.960937,-4.376953 C 76.058287,90.593918 75.213174,89.867188 74.25,89.867187 Z m 0,0.265625 c 0.829382,0 1.602099,0.633588 2.173828,1.710938 0.571729,1.07735 0.929688,2.583824 0.929688,4.253906 v 39.576174 c 0,1.67008 -0.357959,3.1746 -0.929688,4.25195 -0.571729,1.07735 -1.344446,1.71289 -2.173828,1.71289 -0.829382,0 -1.602099,-0.63554 -2.173828,-1.71289 -0.571729,-1.07735 -0.929688,-2.58187 -0.929688,-4.25195 V 96.097656 c 0,-1.670082 0.357959,-3.176556 0.929688,-4.253906 0.571729,-1.07735 1.344446,-1.710937 2.173828,-1.710938 z"
             id="path3875" />
        </g>
        <g
           id="rect391-4">
          <path
             style="color:#000000;fill:#fff6d5;stroke:none;stroke-width:0.264583;-inkscape-stroke:none"
             d="m 90.258034,90 c 1.792559,0 3.235666,2.71935 3.235666,6.097197 v 39.576243 c 0,3.37785 -1.443107,6.0972 -3.235666,6.0972 -1.792558,0 -3.235665,-2.71935 -3.235665,-6.0972 V 96.097197 C 87.022369,92.71935 88.465476,90 90.258034,90 Z"
             id="path3879" />
          <path
             style="color:#000000;fill:#000000;stroke:none;-inkscape-stroke:none"
             d="m 90.257812,89.867187 c -0.963174,0 -1.808286,0.726731 -2.40625,1.853516 -0.597963,1.126785 -0.960937,2.669192 -0.960937,4.376953 v 39.576174 c 0,1.70776 0.362974,3.25017 0.960937,4.37695 0.597964,1.12679 1.443076,1.85156 2.40625,1.85156 0.963175,0 1.808287,-0.72477 2.40625,-1.85156 0.597964,-1.12678 0.962891,-2.66919 0.962891,-4.37695 V 96.097656 c 0,-1.707761 -0.364927,-3.250168 -0.962891,-4.376953 -0.597963,-1.126785 -1.443075,-1.853515 -2.40625,-1.853516 z m 0,0.265625 c 0.829383,0 1.6021,0.633588 2.173829,1.710938 0.571729,1.07735 0.929687,2.583824 0.929687,4.253906 v 39.576174 c 0,1.67008 -0.357958,3.1746 -0.929687,4.25195 -0.571729,1.07735 -1.344446,1.71289 -2.173829,1.71289 -0.829381,0 -1.602099,-0.63554 -2.173828,-1.71289 -0.571728,-1.07735 -0.929687,-2.58187 -0.929687,-4.25195 V 96.097656 c 0,-1.670082 0.357959,-3.176556 0.929687,-4.253906 0.571729,-1.07735 1.344447,-1.710937 2.173828,-1.710938 z"
             id="path3881" />
        </g>
        <g
           id="rect325-5">
          <path
             style="color:#000000;fill:#e6e6e6;stroke:none;stroke-width:0.264583;-inkscape-stroke:none"
             d="m 44.623169,74.420296 h 56.685311 c 3.54459,0 6.39817,1.595012 6.39817,3.576261 0,1.981249 -2.85358,3.576261 -6.39817,3.576261 H 44.623169 c -3.544586,0 -6.398171,-1.595012 -6.398171,-3.576261 0,-1.981249 2.853585,-3.576261 6.398171,-3.576261 z"
             id="path3885" />
          <path
             style="color:#000000;fill:#000000;stroke:none;-inkscape-stroke:none"
             d="m 44.623047,74.287109 c -1.792134,0 -3.410206,0.402049 -4.591797,1.0625 -1.181591,0.660451 -1.939453,1.592348 -1.939453,2.646485 0,1.054136 0.757862,1.986033 1.939453,2.646484 1.181591,0.660451 2.799663,1.0625 4.591797,1.0625 h 56.685543 c 1.79214,0 3.41021,-0.402049 4.5918,-1.0625 1.18159,-0.660451 1.93945,-1.592348 1.93945,-2.646484 0,-1.054137 -0.75786,-1.986034 -1.93945,-2.646485 -1.18159,-0.660451 -2.79966,-1.0625 -4.5918,-1.0625 z m 0,0.265625 h 56.685543 c 1.75245,0 3.33155,0.394978 4.46289,1.027344 1.13135,0.632366 1.80274,1.488905 1.80274,2.416016 0,0.92711 -0.67139,1.783649 -1.80274,2.416015 -1.13134,0.632366 -2.71044,1.029297 -4.46289,1.029297 H 44.623047 c -1.752448,0 -3.331545,-0.396931 -4.462891,-1.029297 -1.131345,-0.632366 -1.802734,-1.488905 -1.802734,-2.416015 0,-0.927111 0.671389,-1.78365 1.802734,-2.416016 1.131346,-0.632366 2.710443,-1.027344 4.462891,-1.027344 z"
             id="path3887" />
        </g>
      </g>
    </g>
  </g>
</svg>
